<?xml version="1.0" standalone="no"?><!DOCTYPE svg PUBLIC "-//W3C//DTD SVG 1.1//EN" "http://www.w3.org/Graphics/SVG/1.1/DTD/svg11.dtd"><svg class="icon" height="512" viewBox="0 0 1073 1024" version="1.1" xmlns="http://www.w3.org/2000/svg"><path d="M906.386252 437.78915a88.576921 88.576921 0 0 0-64.141908-27.489389 91.631298 91.631298 0 0 0-91.631298 91.631297 91.631298 91.631298 0 0 0 91.631298 90.10411 87.813327 87.813327 0 0 0 64.141908-26.725795 89.340515 89.340515 0 0 0 0-127.520223zM733.050381 674.503336a80.177385 80.177385 0 0 0-59.560344 25.198606 77.886603 77.886603 0 0 0-22.907824 58.033156 80.94098 80.94098 0 0 0 22.907824 58.796749 79.413791 79.413791 0 0 0 58.79675 22.907824 78.650197 78.650197 0 0 0 55.742372-22.907824 80.177385 80.177385 0 0 0 25.198607-61.087532 77.886603 77.886603 0 0 0-25.198607-58.033155 79.413791 79.413791 0 0 0-58.033155-24.435013zM743.740699 351.503012a99.267239 99.267239 0 0 0 99.267239-99.26724 99.267239 99.267239 0 1 0-198.534478 0 99.267239 99.267239 0 0 0 99.267239 99.26724zM473.428371 782.933704a71.014256 71.014256 0 0 0-53.45159 21.380636 72.541444 72.541444 0 0 0-19.853448 53.451591 70.250661 70.250661 0 0 0 21.380636 53.45159 76.359415 76.359415 0 0 0 105.375992 0 70.250661 70.250661 0 0 0 22.907825-53.45159 73.305038 73.305038 0 0 0-22.907825-53.451591 71.77785 71.77785 0 0 0-51.924402-20.617041z m0-740.686322a103.848804 103.848804 0 0 0-76.359415 30.543766 102.321616 102.321616 0 0 0-30.543766 76.359415 104.612398 104.612398 0 0 0 30.543766 76.359414 108.430369 108.430369 0 0 0 152.71883 0 104.612398 104.612398 0 0 0 30.543765-76.359414 102.321616 102.321616 0 0 0-30.543765-76.359415 103.848804 103.848804 0 0 0-76.359415-30.543766z m-256.567633 259.62201a48.106431 48.106431 0 0 0 35.12533-15.271883 49.63362 49.63362 0 0 0 0-68.723473 50.397214 50.397214 0 0 0-68.723473 0 49.63362 49.63362 0 0 0 34.361737 83.995356z m0 385.615044a65.669097 65.669097 0 0 0-45.815649 19.853448 61.087532 61.087532 0 0 0-20.617042 45.815649 63.378314 63.378314 0 0 0 19.853448 45.815648 64.905502 64.905502 0 0 0 93.158486 0 63.378314 63.378314 0 0 0 19.853447-45.815648 61.087532 61.087532 0 0 0-18.326259-45.815649 65.669097 65.669097 0 0 0-45.815649-19.853448z m-76.359415-225.260273a54.978779 54.978779 0 0 0-39.706896-17.562666 57.269561 57.269561 0 0 0-39.706895 15.271883 55.742373 55.742373 0 0 0-17.562666 41.234084 56.505967 56.505967 0 0 0 58.033155 58.033155 54.978779 54.978779 0 0 0 40.47049-16.799071 57.269561 57.269561 0 0 0 17.562666-41.234084 55.742373 55.742373 0 0 0-19.853448-40.470489z" fill="#1CD3A2" /></svg>